<svg xmlns="http://www.w3.org/2000/svg" viewBox="0 0 86.967 73.924">
  <path id="Icon_ionic-ios-airplane" data-name="Icon ionic-ios-airplane"
    d="M74.337,35.183c-.652,0-2.84.02-3.454.059l-12.452.337a.353.353,0,0,1-.326-.178L39.437,6.529a3.061,3.061,0,0,0-2.59-1.466H32.3c-1.074,0-1.439,1.11-1.055,2.14l9.612,28.3a.387.387,0,0,1-.345.535l-23.484.357a1.527,1.527,0,0,1-1.266-.614l-7.1-8.917a3.011,3.011,0,0,0-2.418-1.209H3.021a.786.786,0,0,0-.729,1.05L6.11,40.316a3.328,3.328,0,0,1,0,2.358L2.291,56.288a.786.786,0,0,0,.729,1.05h3.2a3.068,3.068,0,0,0,2.418-1.209l7.233-9.056a1.552,1.552,0,0,1,1.266-.614l23.35.535a.392.392,0,0,1,.345.535L31.225,75.847c-.384,1.03-.019,2.14,1.055,2.14h4.547a3.037,3.037,0,0,0,2.59-1.466L58.105,47.668a.374.374,0,0,1,.326-.178l12.452.337c.633.04,2.8.059,3.454.059,8.5,0,13.872-2.834,13.872-6.341S82.856,35.183,74.337,35.183Z"
    transform="translate(-1.742 -4.563)" fill="#88def9" stroke="rgba(0,0,0,0)" stroke-width="1" />
</svg>